# xmcd
#
# Track frame offsets:
# 150
# 19162
# 47162
# 63432
# 76200
# 97775
# 119187
# 139687
# 157975
# 177950
# 197650
# 214500
#
# Disc length: 2954 seconds
#
#
# Revision: 0
# Processed by: cddbd v1.5.1PL2 Copyright (c) Steve Scherf et al.
# Submitted via: FreeRIP 2.945 
#
DISCID=9d0b880c
DTITLE=Double Wammy - Fender Bender
DYEAR=1992
DGENRE=R&B
TTITLE0=Monster Stomp
TTITLE1=Chicken Pox Poart 1 and 2
TTITLE2=Time For a Change
TTITLE3=More and More
TTITLE4=Leslie Goes Crazy
TTITLE5=She's Gone
TTITLE6=Make Love To Me
TTITLE7=Potential Baby
TTITLE8=Wild Gentleman Swing
TTITLE9=Fender Bender
TTITLE10=Big Cigar
TTITLE11=Surf Lullaby
EXTD=
EXTT0=
EXTT1=
EXTT2=
EXTT3=
EXTT4=
EXTT5=
EXTT6=
EXTT7=
EXTT8=
EXTT9=
EXTT10=
EXTT11=
PLAYORDER=
